<?xml version="1.0" encoding="UTF-8"?>
<!-- Generator: visioncortex VTracer 0.6.3 -->
<svg version="1.1" xmlns="http://www.w3.org/2000/svg" width="1280" height="1092">
<path d="M0 0 C1 0 2 0 3.02 0 C4.17 -0 5.32 -0.01 6.51 -0.01 C8.42 -0.01 8.42 -0.01 10.37 0 C11.73 0 13.08 -0 14.44 -0.01 C18.19 -0.01 21.93 -0.01 25.68 0 C29.71 0.01 33.74 0 37.78 0 C45.68 -0 53.59 0 61.49 0.01 C70.69 0.02 79.89 0.02 89.09 0.02 C105.49 0.02 121.9 0.03 138.3 0.04 C154.24 0.06 170.18 0.06 186.11 0.06 C187.59 0.06 187.59 0.06 189.09 0.06 C190.07 0.06 191.05 0.06 192.06 0.06 C210.18 0.06 228.29 0.07 246.41 0.08 C252.83 0.08 259.25 0.08 265.67 0.08 C273.49 0.08 281.3 0.09 289.12 0.1 C293.11 0.1 297.1 0.1 301.09 0.1 C304.74 0.1 308.39 0.11 312.04 0.11 C314 0.12 315.95 0.11 317.91 0.11 C319.63 0.12 319.63 0.12 321.39 0.12 C322.39 0.12 323.38 0.12 324.41 0.12 C326.64 0.25 326.64 0.25 327.64 1.25 C327.75 2.86 327.78 4.48 327.78 6.09 C327.79 7.14 327.79 8.2 327.8 9.28 C327.8 11.04 327.8 11.04 327.8 12.83 C327.81 14.07 327.81 15.3 327.82 16.57 C327.83 20.02 327.84 23.46 327.84 26.9 C327.85 30.6 327.87 34.31 327.88 38.01 C327.9 44.44 327.92 50.86 327.93 57.28 C327.96 66.57 327.98 75.86 328.01 85.15 C328.06 100.22 328.11 115.29 328.15 130.35 C328.19 144.99 328.23 159.64 328.27 174.28 C328.27 175.18 328.28 176.08 328.28 177.01 C328.29 181.53 328.31 186.06 328.32 190.58 C328.43 228.14 328.54 265.69 328.64 303.25 C329.46 303.25 330.28 303.26 331.12 303.26 C351.01 303.37 370.9 303.47 390.78 303.59 C400.4 303.64 410.02 303.7 419.64 303.75 C428.01 303.79 436.39 303.84 444.77 303.89 C449.21 303.91 453.65 303.94 458.09 303.96 C462.26 303.98 466.44 304 470.61 304.03 C472.15 304.04 473.68 304.05 475.22 304.05 C477.31 304.06 479.4 304.08 481.49 304.09 C482.66 304.1 483.83 304.1 485.04 304.11 C487.64 304.25 487.64 304.25 488.64 305.25 C488.75 306.87 488.78 308.49 488.78 310.1 C488.79 311.16 488.79 312.22 488.8 313.31 C488.8 315.07 488.8 315.07 488.8 316.87 C488.81 318.11 488.81 319.35 488.82 320.62 C488.83 324.08 488.84 327.53 488.84 330.98 C488.85 334.7 488.87 338.42 488.88 342.13 C488.9 348.58 488.92 355.02 488.93 361.47 C488.96 370.79 488.98 380.11 489.01 389.43 C489.06 404.54 489.11 419.66 489.15 434.78 C489.19 449.47 489.23 464.16 489.27 478.85 C489.27 479.75 489.28 480.66 489.28 481.59 C489.29 486.13 489.31 490.67 489.32 495.21 C489.43 532.89 489.54 570.57 489.64 608.25 C491.62 608.25 491.62 608.25 493.64 608.25 C524.9 608.23 556.17 608.21 587.43 608.2 C591.27 608.2 595.12 608.2 598.96 608.19 C599.73 608.19 600.49 608.19 601.28 608.19 C613.69 608.19 626.1 608.18 638.51 608.17 C651.23 608.16 663.95 608.16 676.68 608.16 C684.53 608.15 692.39 608.15 700.25 608.14 C706.26 608.14 712.28 608.14 718.29 608.14 C720.77 608.14 723.24 608.13 725.72 608.13 C729.08 608.13 732.44 608.13 735.8 608.13 C736.8 608.13 737.79 608.12 738.81 608.12 C739.71 608.12 740.6 608.12 741.52 608.13 C742.69 608.13 742.69 608.13 743.88 608.13 C745.64 608.25 745.64 608.25 746.64 609.25 C746.73 611.7 746.76 614.12 746.74 616.57 C746.74 617.3 746.74 618.03 746.74 618.78 C746.73 621.12 746.72 623.47 746.71 625.81 C746.7 627.4 746.7 628.98 746.69 630.57 C746.68 634.46 746.66 638.36 746.64 642.25 C652.01 642.8 557.38 643.27 435.28 643.72 C427.47 643.75 419.66 643.78 411.85 643.8 C382.34 643.91 352.82 644.02 323.3 644.12 C322.59 644.13 321.87 644.13 321.13 644.13 C304.18 644.19 287.23 644.25 270.29 644.31 C269.18 644.32 269.18 644.32 268.04 644.32 C264.29 644.33 260.54 644.35 256.79 644.36 C256.05 644.36 255.31 644.36 254.54 644.37 C253.05 644.37 251.55 644.38 250.05 644.38 C225.21 644.47 200.38 644.56 175.54 644.65 C172.04 644.66 168.53 644.68 165.02 644.69 C164.33 644.69 163.65 644.69 162.94 644.7 C152.69 644.73 142.44 644.77 132.19 644.8 C120.61 644.84 109.04 644.88 97.46 644.93 C91.59 644.95 85.73 644.97 79.86 644.99 C58.56 645.05 37.27 645.19 15.97 645.83 C-2.89 646.39 -21.75 646.39 -40.61 646.37 C-45.79 646.36 -50.97 646.36 -56.14 646.36 C-65.06 646.36 -73.98 646.36 -82.9 646.36 C-95.79 646.35 -108.69 646.34 -121.58 646.34 C-142.51 646.34 -163.44 646.33 -184.38 646.32 C-204.68 646.32 -224.99 646.31 -245.29 646.3 C-246.55 646.3 -247.8 646.3 -249.1 646.3 C-255.4 646.3 -261.71 646.3 -268.01 646.3 C-320.13 646.29 -372.24 646.27 -424.36 646.25 C-424.36 635.03 -424.36 623.81 -424.36 612.25 C-400.54 612.12 -376.73 611.99 -352.91 611.86 C-341.85 611.8 -330.78 611.74 -319.71 611.68 C-310.03 611.62 -300.35 611.57 -290.67 611.52 C-285.58 611.49 -280.48 611.46 -275.39 611.43 C-240.38 611.23 -205.37 611.22 -170.36 611.25 C-170.36 610.6 -170.36 609.96 -170.36 609.3 C-170.4 571.13 -170.44 532.96 -170.46 494.79 C-170.46 490.21 -170.46 485.63 -170.47 481.05 C-170.47 480.14 -170.47 479.23 -170.47 478.29 C-170.48 463.51 -170.49 448.73 -170.51 433.95 C-170.53 418.8 -170.54 403.65 -170.54 388.49 C-170.55 379.14 -170.56 369.78 -170.57 360.42 C-170.58 354.01 -170.59 347.6 -170.58 341.19 C-170.58 337.49 -170.58 333.79 -170.6 330.09 C-170.61 326.08 -170.6 322.08 -170.6 318.07 C-170.6 316.89 -170.61 315.71 -170.61 314.49 C-170.61 313.42 -170.61 312.36 -170.6 311.26 C-170.6 310.33 -170.6 309.41 -170.61 308.45 C-170.36 306.25 -170.36 306.25 -168.36 304.25 C-165.55 304 -165.55 304 -161.89 304.01 C-161.22 304.01 -160.55 304.01 -159.86 304 C-157.6 304 -155.34 304.01 -153.08 304.02 C-151.46 304.02 -149.84 304.02 -148.23 304.02 C-143.83 304.02 -139.43 304.03 -135.04 304.05 C-130.45 304.06 -125.86 304.06 -121.26 304.06 C-112.57 304.07 -103.87 304.09 -95.17 304.11 C-85.27 304.13 -75.37 304.14 -65.47 304.15 C-45.1 304.17 -24.73 304.21 -4.36 304.25 C-4.36 303.61 -4.36 302.97 -4.36 302.32 C-4.4 264.52 -4.44 226.73 -4.46 188.93 C-4.46 184.4 -4.46 179.86 -4.47 175.33 C-4.47 173.98 -4.47 173.98 -4.47 172.6 C-4.48 157.96 -4.49 143.33 -4.51 128.7 C-4.53 113.69 -4.54 98.69 -4.54 83.69 C-4.55 74.42 -4.56 65.16 -4.57 55.89 C-4.58 49.54 -4.59 43.2 -4.58 36.85 C-4.58 33.19 -4.58 29.52 -4.6 25.86 C-4.61 21.89 -4.6 17.92 -4.6 13.96 C-4.61 12.2 -4.61 12.2 -4.61 10.41 C-4.61 8.83 -4.61 8.83 -4.6 7.21 C-4.6 6.3 -4.6 5.38 -4.61 4.43 C-4.24 1.21 -3.19 0.34 0 0 Z M31.64 34.25 C29.91 37.71 30.53 41.72 30.56 45.53 C30.56 46.5 30.57 47.47 30.57 48.47 C30.58 51.75 30.6 55.04 30.62 58.32 C30.63 60.71 30.64 63.09 30.65 65.47 C30.68 71.88 30.71 78.28 30.74 84.68 C30.78 90.68 30.8 96.68 30.83 102.68 C30.91 120.24 30.99 137.81 31.08 155.37 C31.27 194.6 31.45 233.83 31.64 274.25 C118.1 274.25 204.56 274.25 293.64 274.25 C293.66 234.84 293.68 195.42 293.71 154.81 C293.72 136.11 293.72 136.11 293.73 117.03 C293.74 105.9 293.74 105.9 293.74 94.77 C293.74 89.8 293.74 84.82 293.75 79.85 C293.76 73.51 293.76 67.18 293.76 60.85 C293.76 58.51 293.76 56.18 293.76 53.85 C293.77 50.71 293.77 47.58 293.76 44.44 C293.77 43.52 293.77 42.59 293.77 41.63 C294.17 37.62 294.17 37.62 292.64 34.25 C291.25 34.15 289.84 34.13 288.44 34.13 C287.53 34.12 286.62 34.12 285.68 34.12 C284.67 34.12 283.66 34.13 282.61 34.13 C281.01 34.13 281.01 34.13 279.38 34.13 C275.78 34.13 272.17 34.13 268.57 34.14 C266 34.14 263.43 34.14 260.86 34.14 C255.3 34.14 249.75 34.14 244.2 34.14 C236.17 34.15 228.15 34.15 220.12 34.16 C207.1 34.16 194.08 34.16 181.06 34.17 C168.4 34.18 155.75 34.19 143.1 34.19 C141.93 34.2 141.93 34.2 140.74 34.2 C136.83 34.2 132.92 34.2 129.01 34.2 C96.55 34.21 64.1 34.23 31.64 34.25 Z M29.64 36.25 C29.64 114.46 29.64 192.67 29.64 273.25 C29.97 273.25 30.3 273.25 30.64 273.25 C30.64 195.04 30.64 116.83 30.64 36.25 C30.31 36.25 29.98 36.25 29.64 36.25 Z M-136.36 340.25 C-136.55 343.36 -136.62 346.37 -136.6 349.48 C-136.61 350.45 -136.61 351.42 -136.61 352.42 C-136.62 355.68 -136.61 358.95 -136.6 362.22 C-136.6 364.55 -136.6 366.88 -136.61 369.22 C-136.61 375.57 -136.6 381.92 -136.59 388.28 C-136.58 394.24 -136.59 400.2 -136.59 406.16 C-136.59 417.98 -136.58 429.79 -136.56 441.6 C-136.55 453.08 -136.54 464.55 -136.54 476.03 C-136.54 476.73 -136.54 477.44 -136.54 478.17 C-136.54 478.87 -136.54 479.58 -136.54 480.31 C-136.54 492.69 -136.54 505.08 -136.53 517.47 C-136.53 522.75 -136.52 528.03 -136.52 533.31 C-136.52 539.53 -136.52 545.74 -136.51 551.96 C-136.5 554.24 -136.5 556.53 -136.5 558.82 C-136.5 561.93 -136.5 565.04 -136.49 568.15 C-136.49 569.06 -136.49 569.98 -136.5 570.93 C-136.88 574.91 -136.88 574.91 -135.36 578.25 C-133.95 578.35 -132.54 578.37 -131.13 578.37 C-130.21 578.37 -129.29 578.38 -128.34 578.38 C-127.32 578.38 -126.3 578.37 -125.25 578.37 C-124.18 578.37 -123.1 578.37 -121.99 578.37 C-118.36 578.37 -114.73 578.37 -111.1 578.36 C-108.51 578.36 -105.92 578.36 -103.33 578.36 C-97.73 578.36 -92.14 578.36 -86.54 578.36 C-78.46 578.35 -70.37 578.34 -62.28 578.34 C-49.16 578.34 -36.04 578.33 -22.92 578.32 C-10.17 578.32 2.58 578.31 15.33 578.3 C16.51 578.3 16.51 578.3 17.71 578.3 C21.65 578.3 25.59 578.3 29.53 578.3 C62.23 578.29 94.94 578.27 127.64 578.25 C127.67 547.82 127.68 517.39 127.69 486.96 C127.7 483.37 127.7 479.78 127.7 476.19 C127.7 475.48 127.7 474.76 127.7 474.03 C127.7 462.44 127.71 450.86 127.72 439.28 C127.73 427.4 127.74 415.52 127.74 403.64 C127.74 396.97 127.74 390.29 127.75 383.62 C127.76 377.34 127.76 371.07 127.76 364.79 C127.76 362.48 127.76 360.17 127.76 357.86 C127.77 354.72 127.77 351.58 127.76 348.44 C127.77 347.52 127.77 346.59 127.77 345.63 C128.17 341.62 128.17 341.62 126.64 338.25 C125.25 338.15 123.85 338.12 122.45 338.12 C121.54 338.12 120.63 338.11 119.69 338.11 C118.68 338.11 117.67 338.11 116.63 338.12 C115.03 338.11 115.03 338.11 113.4 338.11 C109.8 338.1 106.2 338.1 102.6 338.1 C100.03 338.1 97.47 338.1 94.9 338.09 C88.63 338.09 82.36 338.08 76.09 338.08 C70.99 338.08 65.9 338.08 60.81 338.08 C46.38 338.07 31.95 338.06 17.53 338.06 C16.75 338.06 15.97 338.06 15.17 338.06 C14.39 338.06 13.61 338.06 12.8 338.06 C0.17 338.06 -12.47 338.06 -25.11 338.04 C-38.07 338.03 -51.03 338.02 -63.99 338.02 C-71.27 338.02 -78.56 338.02 -85.84 338.01 C-92.69 338 -99.53 338 -106.38 338.01 C-108.9 338.01 -111.42 338 -113.94 338 C-117.36 337.99 -120.79 337.99 -124.21 338 C-125.22 338 -126.23 337.99 -127.27 337.99 C-128.18 337.99 -129.1 338 -130.04 338 C-130.83 338 -131.62 338 -132.44 338 C-134.6 338.08 -134.6 338.08 -136.36 340.25 Z M191.64 340.25 C191.45 343.36 191.38 346.37 191.4 349.48 C191.39 350.45 191.39 351.42 191.39 352.42 C191.38 355.68 191.39 358.95 191.4 362.22 C191.4 364.55 191.4 366.88 191.39 369.22 C191.39 375.57 191.4 381.92 191.41 388.28 C191.42 394.24 191.41 400.2 191.41 406.16 C191.41 417.98 191.42 429.79 191.44 441.6 C191.45 453.08 191.46 464.55 191.46 476.03 C191.46 476.73 191.46 477.44 191.46 478.17 C191.46 478.87 191.46 479.58 191.46 480.31 C191.46 492.69 191.46 505.08 191.47 517.47 C191.47 522.75 191.48 528.03 191.48 533.31 C191.48 539.53 191.48 545.74 191.49 551.96 C191.5 554.24 191.5 556.53 191.5 558.82 C191.5 561.93 191.5 565.04 191.51 568.15 C191.51 569.06 191.51 569.98 191.5 570.93 C191.12 574.91 191.12 574.91 192.64 578.25 C194.05 578.35 195.45 578.37 196.86 578.37 C197.77 578.37 198.69 578.38 199.63 578.38 C200.65 578.38 201.66 578.37 202.71 578.37 C203.78 578.37 204.85 578.37 205.95 578.37 C209.57 578.37 213.19 578.37 216.81 578.36 C219.39 578.36 221.97 578.36 224.55 578.36 C230.12 578.36 235.7 578.36 241.27 578.36 C249.33 578.35 257.39 578.34 265.44 578.34 C278.51 578.34 291.59 578.33 304.66 578.32 C317.36 578.32 330.06 578.31 342.76 578.3 C343.54 578.3 344.32 578.3 345.13 578.3 C349.05 578.3 352.98 578.3 356.9 578.3 C389.48 578.29 422.06 578.27 454.64 578.25 C454.67 547.82 454.68 517.39 454.69 486.96 C454.7 483.37 454.7 479.78 454.7 476.19 C454.7 475.48 454.7 474.76 454.7 474.03 C454.7 462.44 454.71 450.86 454.72 439.28 C454.73 427.4 454.74 415.52 454.74 403.64 C454.74 396.97 454.74 390.29 454.75 383.62 C454.76 377.34 454.76 371.07 454.76 364.79 C454.76 362.48 454.76 360.17 454.76 357.86 C454.77 354.72 454.77 351.58 454.76 348.44 C454.77 347.52 454.77 346.59 454.77 345.63 C455.17 341.62 455.17 341.62 453.64 338.25 C452.25 338.15 450.86 338.12 449.47 338.12 C448.56 338.12 447.65 338.11 446.72 338.11 C445.21 338.11 445.21 338.11 443.67 338.12 C442.07 338.11 442.07 338.11 440.45 338.11 C436.86 338.1 433.28 338.1 429.69 338.1 C427.14 338.1 424.58 338.1 422.02 338.09 C415.77 338.09 409.53 338.08 403.28 338.08 C398.21 338.08 393.13 338.08 388.06 338.08 C373.69 338.07 359.32 338.06 344.94 338.06 C344.17 338.06 343.39 338.06 342.59 338.06 C341.43 338.06 341.43 338.06 340.24 338.06 C327.65 338.06 315.06 338.06 302.47 338.04 C289.56 338.03 276.65 338.02 263.74 338.02 C256.48 338.02 249.23 338.02 241.98 338.01 C235.16 338 228.34 338 221.52 338.01 C219.01 338.01 216.5 338 213.99 338 C210.57 337.99 207.16 337.99 203.75 338 C202.74 338 201.74 337.99 200.7 337.99 C199.34 337.99 199.34 337.99 197.95 338 C196.76 338 196.76 338 195.56 338 C193.4 338.08 193.4 338.08 191.64 340.25 Z M-233.36 612.25 C-233.36 612.58 -233.36 612.91 -233.36 613.25 C-227.75 613.25 -222.14 613.25 -216.36 613.25 C-216.36 612.92 -216.36 612.59 -216.36 612.25 C-221.97 612.25 -227.58 612.25 -233.36 612.25 Z " fill="#5BB29A" transform="translate(424.3568039536476,445.7504523396492)"/>
<path d="M0 0 C0.77 -0 1.53 -0 2.32 -0 C16.43 0.03 29.68 1.61 43.31 5.44 C44.18 5.68 45.05 5.92 45.95 6.17 C66.51 12.09 86.06 23.1 102.19 37.12 C102.78 37.64 103.37 38.15 103.97 38.67 C134.52 65.46 155.57 101.81 158.49 142.9 C158.71 147.76 158.74 152.62 158.7 157.49 C158.69 159.94 158.7 162.38 158.72 164.83 C158.74 181.14 156.47 196.95 151.31 212.44 C151.11 213.06 150.9 213.69 150.69 214.33 C137.91 252.75 107 285.09 71.31 303.44 C49.75 313.55 27.09 318.63 3.39 318.62 C1.08 318.62 -1.23 318.64 -3.54 318.66 C-17.85 318.72 -30.98 316.52 -44.69 312.44 C-45.4 312.23 -46.11 312.01 -46.85 311.8 C-71.99 304.22 -92.15 290.83 -111.2 272.84 C-112.62 271.5 -114.07 270.17 -115.51 268.85 C-122.7 262.03 -128.12 254.55 -133.49 246.26 C-134.5 244.72 -135.56 243.21 -136.62 241.71 C-140.72 235.76 -143.63 229.42 -146.5 222.81 C-146.89 221.93 -147.27 221.05 -147.67 220.14 C-149.7 215.32 -151.19 210.71 -152.2 205.58 C-152.69 203.4 -153.39 201.44 -154.21 199.37 C-162.63 177.82 -161.03 146.61 -155.69 124.44 C-155.49 123.59 -155.29 122.75 -155.09 121.88 C-152.3 110.4 -148.59 99.92 -142.87 89.59 C-141.53 87.16 -140.24 84.7 -138.94 82.25 C-137.98 80.46 -137.02 78.67 -136.06 76.88 C-135.62 76.04 -135.18 75.21 -134.72 74.35 C-131.87 69.14 -128.66 64.83 -124.69 60.44 C-123.27 58.67 -121.85 56.9 -120.44 55.12 C-97.81 27.51 -63.51 9.24 -28.69 2.44 C-27.83 2.26 -26.97 2.08 -26.09 1.9 C-17.4 0.25 -8.81 -0 0 0 Z M-28.69 37.44 C-29.67 37.68 -29.67 37.68 -30.67 37.93 C-41.21 40.6 -50.38 45.07 -59.81 50.4 C-61.43 51.3 -63.09 52.14 -64.75 52.96 C-72.73 56.96 -79.13 62.45 -85.69 68.44 C-86.59 69.25 -87.49 70.07 -88.42 70.91 C-110.15 91.6 -124.14 123.4 -124.89 153.31 C-125.04 165.97 -124.97 178.16 -121.69 190.44 C-121.47 191.24 -121.26 192.05 -121.04 192.88 C-116.12 210.57 -107.96 226.69 -95.69 240.44 C-94.98 241.26 -94.27 242.09 -93.55 242.94 C-82.14 256.02 -68.59 266.33 -52.69 273.44 C-51.7 273.44 -50.71 273.44 -49.69 273.44 C-49.36 274.1 -49.03 274.76 -48.69 275.44 C-46.13 276.36 -43.61 277.18 -41 277.94 C-39.58 278.36 -38.16 278.79 -36.74 279.22 C-36.05 279.42 -35.36 279.63 -34.66 279.83 C-32.86 280.38 -31.09 281 -29.32 281.62 C-26.56 282.48 -25.34 282.46 -22.69 281.44 C-22.36 282.1 -22.03 282.76 -21.69 283.44 C-2.27 287.08 18.55 285.19 37.31 279.44 C38.12 279.19 38.92 278.95 39.75 278.69 C58.25 272.88 73.36 262.82 87.31 249.44 C88.13 248.68 88.95 247.92 89.8 247.14 C96.69 240.58 102.13 233.38 107.31 225.44 C107.68 224.88 108.05 224.31 108.43 223.73 C124.45 198.86 124.87 171 125.31 142.44 C124.65 142.44 123.99 142.44 123.31 142.44 C123.35 141.53 123.39 140.62 123.44 139.69 C123.38 129.49 120.67 120.56 116.31 111.44 C115.91 110.59 115.51 109.75 115.1 108.88 C113.71 105.95 112.3 103.04 110.88 100.12 C110.42 99.18 109.97 98.24 109.5 97.27 C106.68 91.6 103.59 87.07 99.31 82.44 C98.2 80.99 97.09 79.53 96 78.06 C83.47 61.93 68.31 52.85 49.97 44.63 C48.28 43.87 46.59 43.1 44.91 42.31 C39.92 39.98 35.06 38.42 29.69 37.25 C28.98 37.09 28.26 36.92 27.53 36.75 C9.3 32.63 -10.55 32.91 -28.69 37.44 Z M125.31 153.44 C125.31 158.06 125.31 162.68 125.31 167.44 C125.64 167.44 125.97 167.44 126.31 167.44 C126.31 162.82 126.31 158.2 126.31 153.44 C125.98 153.44 125.65 153.44 125.31 153.44 Z " fill="#E15853" transform="translate(967.6875,157.5625)"/>
<path d="M0 0 C3.5 1.75 3.5 1.75 6 4 C6.74 4.6 7.49 5.2 8.25 5.81 C11.12 9.4 12.01 12.74 11.99 17.32 C11.03 25.25 6.52 29.6 1 35 C0.31 35.71 -0.38 36.43 -1.09 37.16 C-3.49 39.62 -5.88 42.05 -8.5 44.27 C-14.78 49.6 -20.54 55.43 -26.34 61.27 C-28.22 63.16 -30.11 65.05 -32 66.95 C-36 70.96 -40 74.98 -44 79 C-48.64 83.66 -53.28 88.32 -57.93 92.98 C-59.77 94.83 -61.61 96.69 -63.46 98.54 C-68.58 103.69 -73.71 108.74 -79.24 113.46 C-82.37 116.2 -85.26 119.19 -88.17 122.18 C-89.49 123.51 -90.8 124.85 -92.12 126.18 C-94.17 128.26 -96.21 130.33 -98.24 132.42 C-100.23 134.45 -102.23 136.47 -104.23 138.49 C-104.84 139.11 -105.44 139.74 -106.06 140.38 C-111.03 145.37 -114.82 147.29 -122 147.31 C-123.01 147.33 -124.02 147.35 -125.06 147.36 C-130.03 146.75 -133.22 144.26 -136.31 140.44 C-139.1 136.51 -139.65 133.44 -139.6 128.69 C-137.92 121.17 -133.91 116.42 -128.19 111.5 C-126.93 110.38 -125.67 109.25 -124.41 108.12 C-123.52 107.32 -123.52 107.32 -122.61 106.5 C-120.02 104.09 -117.78 101.42 -115.51 98.7 C-113.46 96.39 -111.17 94.46 -108.77 92.52 C-107.35 91.3 -105.99 89.99 -104.66 88.66 C-101.88 85.88 -98.99 83.25 -96.06 80.62 C-92.23 77.15 -88.67 73.62 -85.41 69.6 C-83.78 67.75 -82.01 66.22 -80.12 64.62 C-77.15 62.1 -74.55 59.46 -72 56.5 C-69.52 53.63 -67.03 51.06 -64.12 48.62 C-59.97 45.13 -56.5 41.16 -52.98 37.04 C-50.52 34.36 -47.77 32.16 -44.92 29.89 C-38.5 24.72 -32.81 18.96 -27.06 13.06 C-25.06 11.01 -23.05 8.96 -21.04 6.91 C-20.16 6.01 -19.29 5.12 -18.39 4.2 C-12.86 -0.88 -7.25 -0.8 0 0 Z " fill="#E05853" transform="translate(1129,0)"/>
<path d="M0 0 C3.31 1.69 3.31 1.69 6 4 C6.86 4.72 7.71 5.44 8.6 6.18 C12.37 10.61 12.38 15.09 11.99 20.69 C10.64 29.01 3.56 34.39 -2.28 39.88 C-3.66 41.23 -5.03 42.58 -6.39 43.93 C-9.99 47.47 -13.62 50.95 -17.27 54.43 C-20.97 57.97 -24.61 61.55 -28.26 65.13 C-48.48 84.91 -48.48 84.91 -55.18 90.65 C-60.53 95.24 -65.43 100.3 -70.39 105.3 C-71.47 106.38 -72.55 107.46 -73.63 108.54 C-76.45 111.37 -79.27 114.19 -82.09 117.02 C-84.96 119.9 -87.83 122.78 -90.71 125.66 C-95.75 130.71 -100.79 135.77 -105.83 140.83 C-106.55 141.54 -107.26 142.26 -108 143 C-108.83 143.85 -108.83 143.85 -109.68 144.72 C-113.94 148.85 -119.1 148.58 -124.72 148.53 C-129.93 147.69 -132.65 144.88 -136 141 C-136.66 140.34 -137.32 139.68 -138 139 C-139.83 134.05 -139.51 129.33 -137.64 124.46 C-134.44 118.33 -129.27 113.76 -124.39 108.96 C-123.34 107.92 -122.29 106.87 -121.24 105.82 C-119.04 103.63 -116.84 101.45 -114.63 99.27 C-111.82 96.5 -109.02 93.72 -106.23 90.94 C-103.53 88.25 -100.84 85.58 -98.14 82.9 C-97.64 82.4 -97.13 81.9 -96.61 81.38 C-87.65 72.49 -87.65 72.49 -83.13 68.64 C-77.69 63.97 -72.72 58.8 -67.69 53.7 C-65.81 51.8 -63.93 49.91 -62.05 48.01 C-56.7 42.63 -51.35 37.24 -46.02 31.85 C-42.74 28.53 -39.46 25.23 -36.17 21.92 C-34.93 20.67 -33.69 19.42 -32.45 18.16 C-13.13 -1.46 -13.13 -1.46 0 0 Z " fill="#E05853" transform="translate(1269,123)"/>
<path d="M0 0 C3.9 2.41 6.47 5.2 9 9 C9.48 11.23 9.48 11.23 9.75 13.75 C9.85 14.57 9.95 15.39 10.05 16.23 C9.89 25.73 4.52 30.16 -1.98 36.5 C-2.99 37.5 -4 38.51 -5 39.51 C-7.66 42.15 -10.32 44.78 -12.99 47.4 C-15.16 49.52 -17.3 51.66 -19.45 53.79 C-22.04 56.37 -24.63 58.93 -27.23 61.5 C-27.71 61.98 -28.2 62.46 -28.7 62.95 C-37.31 71.46 -37.31 71.46 -41.86 75.35 C-47.23 79.97 -52.17 85.06 -57.16 90.08 C-59.01 91.94 -60.86 93.8 -62.71 95.66 C-66.64 99.6 -70.57 103.55 -74.5 107.5 C-79.06 112.08 -83.62 116.66 -88.18 121.23 C-89.99 123.05 -91.8 124.87 -93.61 126.7 C-98.76 131.87 -103.9 136.98 -109.49 141.69 C-111.18 143.11 -111.18 143.11 -113.25 145.38 C-116.61 148.5 -120.44 148.3 -124.92 148.21 C-130.11 147.69 -133.83 145.51 -137.38 141.81 C-140.38 137.98 -141.27 134.83 -141 130 C-139.58 123.19 -136.76 118.89 -131.82 114.12 C-131.2 113.5 -130.58 112.87 -129.94 112.23 C-127.89 110.19 -125.83 108.17 -123.77 106.15 C-122.33 104.72 -120.9 103.29 -119.47 101.87 C-115.7 98.12 -111.92 94.39 -108.13 90.66 C-105.05 87.63 -101.99 84.58 -98.93 81.53 C-95.25 77.88 -91.57 74.23 -87.89 70.59 C-87.2 69.9 -86.51 69.21 -85.79 68.5 C-73.33 56.18 -73.33 56.18 -66.91 50.7 C-63.06 47.27 -59.51 43.54 -55.91 39.86 C-53.93 37.84 -51.93 35.82 -49.94 33.8 C-46.25 30.07 -42.56 26.33 -38.89 22.57 C-36.32 19.94 -33.74 17.32 -31.14 14.71 C-30.17 13.72 -29.19 12.73 -28.23 11.73 C-20.24 3.49 -12.04 -3.81 0 0 Z " fill="#E05853" transform="translate(1221,44)"/>
<path d="M0 0 C0.33 0 0.66 0 1 0 C1 8.91 1 17.82 1 27 C0.67 27 0.34 27 0 27 C0 18.09 0 9.18 0 0 Z " fill="#000100" transform="translate(1127,304)"/>
<path d="" fill="#000100" transform="translate(0,0)"/>
<path d="" fill="#000100" transform="translate(0,0)"/>
<path d="" fill="#E15853" transform="translate(0,0)"/>
<path d="" fill="#E15853" transform="translate(0,0)"/>
<path d="" fill="#000100" transform="translate(0,0)"/>
<path d="" fill="#000100" transform="translate(0,0)"/>
<path d="" fill="#000100" transform="translate(0,0)"/>
<path d="" fill="#000100" transform="translate(0,0)"/>
<path d="" fill="#000100" transform="translate(0,0)"/>
<path d="" fill="#000100" transform="translate(0,0)"/>
<path d="" fill="#000100" transform="translate(0,0)"/>
</svg>
