<?xml version="1.0" encoding="UTF-8"?>
<!-- Generator: visioncortex VTracer 0.6.3 -->
<svg version="1.1" xmlns="http://www.w3.org/2000/svg" width="1280" height="1280">
<path d="M0 0 C422.4 0 844.8 0 1280 0 C1280 422.4 1280 844.8 1280 1280 C857.6 1280 435.2 1280 0 1280 C0 857.6 0 435.2 0 0 Z " fill="#E42462" transform="translate(0,0)"/>
<path d="M0 0 C0.84 0.26 1.67 0.52 2.54 0.79 C13.71 4.32 24.43 8.8 35.12 13.56 C35.74 13.84 36.36 14.11 37 14.39 C44.67 17.8 51.9 21.53 59 26 C60.47 26.88 61.95 27.76 63.42 28.64 C75.77 36.06 87.5 43.98 98.67 53.11 C101.84 55.68 105.11 58.12 108.38 60.55 C109.18 61.27 109.18 61.27 110 62 C110 62.66 110 63.32 110 64 C110.58 64.27 111.17 64.53 111.77 64.81 C119.12 68.73 125.1 75.91 130.94 81.75 C131.73 82.54 132.52 83.34 133.34 84.15 C138.97 89.84 144.1 95.67 149 102 C150.39 103.67 151.79 105.34 153.19 107 C157.34 112.08 161.28 117.3 165.19 122.56 C165.77 123.34 166.35 124.12 166.95 124.92 C171 130.42 174.56 136.11 178 142 C179 143.65 180 145.29 181 146.94 C205.34 187.56 220.02 232.94 225 280 C225.09 280.83 225.19 281.66 225.29 282.52 C226.33 292.92 226.2 303.37 226.19 313.81 C226.19 314.82 226.19 315.83 226.18 316.87 C226.12 350.38 221.39 381.77 212 414 C211.64 415.29 211.64 415.29 211.26 416.61 C209.54 422.58 207.38 428.27 205 434 C204.21 435.95 203.42 437.89 202.63 439.84 C201.8 441.87 200.96 443.91 200.12 445.94 C199.72 446.94 199.31 447.95 198.89 448.99 C196.02 455.93 192.68 462.46 189 469 C188.02 470.83 187.04 472.66 186.06 474.5 C183.43 479.34 180.53 483.98 177.52 488.59 C176.2 490.68 175.06 492.77 174 495 C173.34 495 172.68 495 172 495 C171.77 495.67 171.55 496.33 171.32 497.02 C169.6 500.9 167.35 504.21 164.94 507.69 C164.45 508.4 163.96 509.11 163.45 509.84 C160 514.76 156.31 519.26 152.19 523.63 C149.79 526.23 147.59 528.93 145.38 531.69 C142.28 535.51 139.08 539.05 135.54 542.46 C133.77 544.17 133.77 544.17 131.56 547 C128.99 550.01 126.29 552.47 123.28 555.03 C120.75 557.21 118.32 559.48 115.88 561.75 C107.09 569.75 97.61 576.87 88.06 583.94 C87.46 584.39 86.86 584.83 86.24 585.3 C82.3 588.18 78.26 590.61 74 593 C72.59 593.94 71.2 594.9 69.81 595.88 C65.44 598.84 60.86 601.15 56.09 603.41 C53.68 604.65 51.49 605.94 49.22 607.41 C44.83 610.19 40.25 612.34 35.5 614.44 C34.62 614.83 33.75 615.22 32.85 615.62 C25.65 618.78 18.39 621.69 10.98 624.3 C9.65 624.77 8.33 625.24 7.01 625.72 C-11.4 632.39 -30.56 637.17 -49.88 640.31 C-50.77 640.46 -51.67 640.61 -52.6 640.76 C-72.17 643.71 -91.71 644.32 -111.47 644.4 C-114.92 644.42 -118.36 644.45 -121.81 644.47 C-128.29 644.52 -134.77 644.56 -141.26 644.59 C-148.66 644.63 -156.05 644.68 -163.45 644.73 C-178.63 644.83 -193.82 644.92 -209 645 C-208.99 645.79 -208.97 646.57 -208.96 647.38 C-208.59 670.59 -208.27 693.79 -208 717 C-207.99 718.07 -207.99 718.07 -207.97 719.15 C-207.88 727.13 -207.8 735.1 -207.77 743.08 C-207.76 745.2 -207.74 747.32 -207.72 749.45 C-207.41 779.22 -212.87 805.22 -232 829 C-233.08 830.42 -233.08 830.42 -234.19 831.88 C-239.43 838.61 -245.21 843.85 -252 849 C-253.05 849.83 -253.05 849.83 -254.12 850.68 C-264.49 858.75 -275.61 863.84 -288 868 C-288.68 868.23 -289.37 868.46 -290.08 868.7 C-318.96 877.87 -351.21 872.18 -377.62 858.75 C-396.14 848.34 -412.74 832.65 -423 814 C-423.55 813.07 -424.09 812.13 -424.66 811.17 C-427.99 805.1 -430.21 798.78 -432.25 792.19 C-432.5 791.41 -432.74 790.62 -433 789.82 C-437.07 775.96 -437.29 761.95 -437.25 747.63 C-437.26 745.71 -437.26 743.78 -437.26 741.86 C-437.27 736.62 -437.27 731.37 -437.26 726.13 C-437.26 720.46 -437.26 714.79 -437.27 709.12 C-437.28 698.02 -437.28 686.92 -437.27 675.82 C-437.27 666.8 -437.27 657.77 -437.27 648.74 C-437.27 647.46 -437.27 646.17 -437.27 644.84 C-437.27 642.23 -437.27 639.61 -437.27 637 C-437.28 613.19 -437.27 589.38 -437.26 565.57 C-437.25 543.88 -437.25 522.2 -437.26 500.51 C-437.27 476.1 -437.28 451.69 -437.27 427.29 C-437.27 424.68 -437.27 422.07 -437.27 419.46 C-437.27 418.18 -437.27 416.9 -437.27 415.57 C-437.26 406.57 -437.27 397.57 -437.27 388.57 C-437.28 377.57 -437.28 366.58 -437.27 355.59 C-437.26 349.99 -437.26 344.39 -437.27 338.79 C-437.31 296 -437.31 296 -435 276 C-434.86 274.66 -434.73 273.33 -434.59 271.99 C-429.7 225.67 -412.02 178.73 -387.12 139.56 C-386.33 138.31 -386.33 138.31 -385.52 137.03 C-378.87 126.6 -371.63 116.73 -364 107 C-363.31 106.12 -362.63 105.23 -361.92 104.32 C-345.54 83.72 -326.26 65.46 -305 50 C-304.38 49.54 -303.76 49.09 -303.12 48.62 C-295.21 42.8 -287.11 37.31 -278.78 32.11 C-277.59 31.37 -276.41 30.63 -275.23 29.88 C-265.69 23.84 -255.83 18.84 -245.55 14.17 C-243.72 13.33 -241.9 12.47 -240.09 11.59 C-231.54 7.5 -222.86 4.37 -213.88 1.44 C-213.15 1.2 -212.42 0.96 -211.67 0.71 C-141.87 -22.19 -69.99 -21.86 0 0 Z " fill="#FBFCFE" transform="translate(743,208)"/>
<path d="M0 0 C3.46 0.02 6.93 0.02 10.39 0.02 C16.92 0.03 23.46 0.06 29.99 0.09 C37.44 0.12 44.89 0.14 52.34 0.15 C67.64 0.18 82.94 0.24 98.24 0.3 C98.62 24.64 98.96 48.97 99.24 73.3 C99.25 74.38 99.25 74.38 99.26 75.47 C99.36 83.46 99.43 91.46 99.47 99.45 C99.48 101.57 99.5 103.69 99.52 105.81 C99.83 135.55 94.35 161.55 75.24 185.3 C74.52 186.25 73.79 187.2 73.05 188.18 C67.81 194.92 62.03 200.15 55.24 205.3 C54.54 205.86 53.84 206.41 53.11 206.98 C42.75 215.05 31.63 220.14 19.24 224.3 C18.21 224.65 18.21 224.65 17.16 225 C-11.72 234.17 -43.97 228.48 -70.39 215.05 C-88.9 204.65 -105.5 188.95 -115.76 170.3 C-116.31 169.37 -116.86 168.44 -117.42 167.47 C-120.75 161.4 -122.97 155.08 -125.01 148.49 C-125.26 147.71 -125.5 146.93 -125.76 146.12 C-129.45 133.58 -130.08 120.89 -129.97 107.92 C-129.95 105.65 -129.95 103.37 -129.95 101.1 C-129.91 89.07 -129.91 89.07 -128.76 84.3 C-128.1 84.96 -127.44 85.62 -126.76 86.3 C-126.35 85.11 -125.94 83.91 -125.51 82.68 C-120.25 67.72 -114.37 54.3 -103.76 42.3 C-102.68 41.04 -102.68 41.04 -101.57 39.75 C-85.67 21.55 -65.13 9.4 -41.76 3.3 C-40.81 3.04 -39.85 2.77 -38.87 2.49 C-26.07 -0.61 -13.09 -0.08 0 0 Z " fill="#E9EAEC" transform="translate(435.76204562187195,851.6958181858063)"/>
<path d="M0 0 C2.44 1.9 4.73 3.87 7.01 5.96 C8.09 6.88 8.09 6.88 9.19 7.82 C28.42 25.41 39.02 51.44 41.01 76.96 C41.2 81.64 41.18 86.28 41.01 90.96 C40.99 91.85 40.98 92.75 40.96 93.68 C39.99 112.64 30.91 131.49 19.01 145.96 C18.21 146.93 17.41 147.91 16.59 148.91 C9.71 156.98 1.77 163.05 -6.99 168.96 C-7.86 169.57 -8.74 170.17 -9.64 170.8 C-25.08 180.87 -45.7 184.11 -63.76 184.1 C-64.82 184.11 -65.88 184.11 -66.97 184.11 C-70.46 184.12 -73.95 184.12 -77.45 184.12 C-79.87 184.13 -82.3 184.13 -84.73 184.14 C-89.81 184.14 -94.89 184.14 -99.98 184.14 C-106.5 184.14 -113.03 184.16 -119.55 184.17 C-124.56 184.18 -129.57 184.19 -134.58 184.19 C-136.99 184.19 -139.4 184.19 -141.8 184.2 C-145.16 184.21 -148.51 184.21 -151.87 184.2 C-152.87 184.21 -153.87 184.21 -154.9 184.22 C-156.26 184.21 -156.26 184.21 -157.66 184.2 C-158.45 184.2 -159.24 184.21 -160.06 184.21 C-161.99 183.96 -161.99 183.96 -163.99 181.96 C-164.25 180.08 -164.25 180.08 -164.26 177.75 C-164.26 176.87 -164.27 175.99 -164.28 175.08 C-164.28 174.11 -164.28 173.13 -164.28 172.13 C-164.29 171.11 -164.29 170.09 -164.3 169.04 C-164.32 165.64 -164.32 162.24 -164.32 158.84 C-164.33 156.47 -164.34 154.1 -164.34 151.73 C-164.36 146.74 -164.36 141.75 -164.36 136.76 C-164.36 130.42 -164.39 124.08 -164.42 117.74 C-164.44 112.83 -164.45 107.92 -164.45 103.01 C-164.45 100.68 -164.46 98.35 -164.47 96.01 C-164.6 74.16 -163.13 49.28 -149.48 31.05 C-147.82 28.82 -147.82 28.82 -146.16 25.61 C-144 21.78 -141.33 18.7 -138.3 15.52 C-137.77 14.96 -137.24 14.39 -136.7 13.81 C-127.13 3.75 -117.1 -4.03 -104.36 -9.67 C-103.5 -10.05 -102.63 -10.44 -101.74 -10.84 C-94.32 -14.07 -86.92 -16.4 -78.99 -18.04 C-78.1 -18.23 -77.2 -18.42 -76.29 -18.62 C-48.87 -22.13 -22.77 -15.56 0 0 Z " fill="#E42462" transform="translate(698.98828125,440.04296875)"/>
<path d="M0 0 C3.46 0.02 6.93 0.02 10.39 0.02 C16.92 0.03 23.46 0.06 29.99 0.09 C38.17 0.13 46.35 0.14 54.54 0.16 C69.1 0.19 83.67 0.25 98.24 0.3 C98.24 18.12 98.24 35.94 98.24 54.3 C94.41 54.3 90.59 54.29 86.65 54.29 C73.97 54.27 61.29 54.26 48.61 54.25 C40.93 54.25 33.24 54.24 25.56 54.23 C18.86 54.22 12.15 54.21 5.45 54.21 C1.91 54.21 -1.64 54.21 -5.18 54.2 C-31.56 53.73 -31.56 53.73 -57.57 57.43 C-58.5 57.65 -59.43 57.87 -60.38 58.09 C-79.78 62.88 -98.83 70.83 -114.85 82.93 C-119.74 86.44 -119.74 86.44 -123.51 85.93 C-124.25 85.72 -125 85.52 -125.76 85.3 C-120.28 58.85 -101.63 34.58 -79.32 19.87 C-67.66 12.42 -55.15 6.8 -41.76 3.3 C-40.81 3.04 -39.85 2.77 -38.87 2.49 C-26.07 -0.61 -13.09 -0.08 0 0 Z " fill="#C9C4C7" transform="translate(435.76204562187195,851.6958181858063)"/>
<path d="M0 0 C0 12.21 0 24.42 0 37 C-5.32 37.56 -10.64 38.11 -16.12 38.69 C-77.43 45.54 -134.46 73.41 -174.44 121.12 C-175.98 123.07 -177.5 125.03 -179 127 C-179.49 127.64 -179.98 128.28 -180.49 128.94 C-188.72 139.78 -195.82 150.89 -202 163 C-202.39 163.75 -202.77 164.51 -203.17 165.28 C-214.55 187.73 -223.26 211.89 -226 237 C-226.99 236.67 -227.98 236.34 -229 236 C-229.02 223 -229.04 209.99 -229.05 196.99 C-229.06 190.95 -229.06 184.91 -229.08 178.88 C-229.09 173.05 -229.09 167.23 -229.09 161.41 C-229.1 159.18 -229.1 156.96 -229.11 154.73 C-229.11 151.62 -229.11 148.51 -229.11 145.41 C-229.12 144.48 -229.12 143.55 -229.12 142.59 C-229.12 141.75 -229.12 140.91 -229.12 140.04 C-229.12 139.3 -229.12 138.57 -229.12 137.81 C-229 136 -229 136 -228 134 C-227.01 134 -226.02 134 -225 134 C-225 132.68 -225 131.36 -225 130 C-223.36 128.96 -221.69 127.97 -220 127 C-218.22 125.09 -216.57 123.21 -214.94 121.19 C-213.96 120.01 -212.97 118.82 -211.99 117.64 C-210.54 115.88 -209.09 114.11 -207.65 112.35 C-201.07 104.35 -194.07 96.89 -186.75 89.56 C-185.91 88.72 -185.07 87.88 -184.21 87.02 C-179.29 82.15 -174.27 77.47 -169 73 C-168.19 72.3 -168.19 72.3 -167.36 71.59 C-146.2 53.64 -121.6 37.81 -96 27 C-94.76 26.46 -93.52 25.91 -92.28 25.37 C-66.87 14.42 -40.34 7.19 -12.97 3.29 C-11.49 3.08 -11.49 3.08 -9.98 2.86 C-9.11 2.74 -8.25 2.62 -7.35 2.5 C-4.9 1.98 -2.39 0 0 0 Z " fill="#EAEBED" transform="translate(535,587)"/>
</svg>
